<?xml version="1.0" encoding="iso-8859-1"?>
<!-- Generator: Adobe Illustrator 19.0.0, SVG Export Plug-In . SVG Version: 6.00 Build 0)  -->
<svg version="1.1" id="Layer_1" xmlns="http://www.w3.org/2000/svg" xmlns:xlink="http://www.w3.org/1999/xlink" x="0px" y="0px"
	 viewBox="0 0 495 495" style="enable-background:new 0 0 495 495;" xml:space="preserve">
<g>
	<path style="fill:#9BC9FF;" d="M495,267.5v-40h-74.324c-3.799-33.108-16.904-63.424-36.634-88.257l52.61-52.61l-28.285-28.284
		l-52.609,52.609c-24.834-19.731-55.15-32.835-88.257-36.634V0h-40v74.324c6.565-0.753,13.236-1.154,20-1.154v348.66
		c-6.764,0-13.435-0.401-20-1.154V495h40v-74.324c33.107-3.799,63.423-16.903,88.257-36.634l52.609,52.609l28.285-28.284
		l-52.61-52.61c19.73-24.833,32.835-55.149,36.634-88.257H495z"/>
	<path style="fill:#FFCD00;" d="M247.5,73.17c-6.764,0-13.435,0.401-20,1.154c-33.107,3.799-63.423,16.903-88.257,36.634
		L86.634,58.349L58.349,86.633l52.61,52.61c-19.731,24.833-32.835,55.149-36.634,88.257H0v40h74.324
		c3.799,33.108,16.904,63.424,36.634,88.257l-52.61,52.61l28.285,28.284l52.609-52.609c24.834,19.731,55.15,32.835,88.257,36.634
		c6.565,0.753,13.236,1.154,20,1.154V73.17z"/>
</g>
<g>
</g>
<g>
</g>
<g>
</g>
<g>
</g>
<g>
</g>
<g>
</g>
<g>
</g>
<g>
</g>
<g>
</g>
<g>
</g>
<g>
</g>
<g>
</g>
<g>
</g>
<g>
</g>
<g>
</g>
</svg>
