<svg xmlns="http://www.w3.org/2000/svg"  viewBox="0 0 100 100" width="100px" height="100px"><path fill="#f1bc19" d="M77 12A1 1 0 1 0 77 14A1 1 0 1 0 77 12Z"/><path fill="#e6edb7" d="M50 13A37 37 0 1 0 50 87A37 37 0 1 0 50 13Z"/><path fill="#f1bc19" d="M83 11A4 4 0 1 0 83 19A4 4 0 1 0 83 11Z"/><path fill="#88ae45" d="M87 22A2 2 0 1 0 87 26A2 2 0 1 0 87 22Z"/><path fill="#fbcd59" d="M88 67A2 2 0 1 0 88 71 2 2 0 1 0 88 67zM15 59A4 4 0 1 0 15 67 4 4 0 1 0 15 59z"/><path fill="#88ae45" d="M25 85A2 2 0 1 0 25 89A2 2 0 1 0 25 85Z"/><path fill="#fff" d="M18.5 49A2.5 2.5 0 1 0 18.5 54 2.5 2.5 0 1 0 18.5 49zM79.5 32A1.5 1.5 0 1 0 79.5 35 1.5 1.5 0 1 0 79.5 32z"/><g><path fill="#88cdd7" d="M28.561 30.5H72.84100000000001V62.372H28.561z"/><path fill="#472b29" d="M72.841 63.072h-2c-.387 0-.7-.313-.7-.7s.313-.7.7-.7h1.3v-1.3c0-.387.313-.7.7-.7s.7.313.7.7v2C73.542 62.759 73.228 63.072 72.841 63.072zM67.18 63.072h-3.662c-.387 0-.7-.313-.7-.7s.313-.7.7-.7h3.662c.387 0 .7.313.7.7S67.566 63.072 67.18 63.072zM59.856 63.072h-3.662c-.387 0-.7-.313-.7-.7s.313-.7.7-.7h3.662c.387 0 .7.313.7.7S60.243 63.072 59.856 63.072zM52.532 63.072h-3.662c-.387 0-.7-.313-.7-.7s.313-.7.7-.7h3.662c.387 0 .7.313.7.7S52.919 63.072 52.532 63.072zM45.208 63.072h-3.662c-.387 0-.7-.313-.7-.7s.313-.7.7-.7h3.662c.387 0 .7.313.7.7S45.595 63.072 45.208 63.072zM37.885 63.072h-3.662c-.387 0-.7-.313-.7-.7s.313-.7.7-.7h3.662c.387 0 .7.313.7.7S38.271 63.072 37.885 63.072zM30.561 63.072h-2c-.387 0-.7-.313-.7-.7v-2c0-.387.313-.7.7-.7s.7.313.7.7v1.3h1.3c.387 0 .7.313.7.7S30.948 63.072 30.561 63.072zM28.561 57.091c-.387 0-.7-.313-.7-.7v-3.981c0-.387.313-.7.7-.7s.7.313.7.7v3.981C29.261 56.777 28.948 57.091 28.561 57.091zM28.561 49.127c-.387 0-.7-.313-.7-.7v-3.981c0-.387.313-.7.7-.7s.7.313.7.7v3.981C29.261 48.813 28.948 49.127 28.561 49.127zM28.561 41.164c-.387 0-.7-.313-.7-.7v-3.981c0-.387.313-.7.7-.7s.7.313.7.7v3.981C29.261 40.851 28.948 41.164 28.561 41.164zM28.561 33.2c-.387 0-.7-.313-.7-.7v-2c0-.387.313-.7.7-.7h2c.387 0 .7.313.7.7s-.313.7-.7.7h-1.3v1.3C29.261 32.887 28.948 33.2 28.561 33.2zM67.179 31.2h-3.662c-.387 0-.7-.313-.7-.7s.313-.7.7-.7h3.662c.387 0 .7.313.7.7S67.566 31.2 67.179 31.2zM59.855 31.2h-3.662c-.387 0-.7-.313-.7-.7s.313-.7.7-.7h3.662c.387 0 .7.313.7.7S60.242 31.2 59.855 31.2zM52.532 31.2H48.87c-.387 0-.7-.313-.7-.7s.313-.7.7-.7h3.662c.387 0 .7.313.7.7S52.918 31.2 52.532 31.2zM45.208 31.2h-3.662c-.387 0-.7-.313-.7-.7s.313-.7.7-.7h3.662c.387 0 .7.313.7.7S45.595 31.2 45.208 31.2zM37.884 31.2h-3.662c-.387 0-.7-.313-.7-.7s.313-.7.7-.7h3.662c.387 0 .7.313.7.7S38.271 31.2 37.884 31.2zM72.841 33.2c-.387 0-.7-.313-.7-.7v-1.3h-1.3c-.387 0-.7-.313-.7-.7s.313-.7.7-.7h2c.387 0 .7.313.7.7v2C73.542 32.887 73.228 33.2 72.841 33.2zM72.841 57.09c-.387 0-.7-.313-.7-.7v-3.981c0-.387.313-.7.7-.7s.7.313.7.7v3.981C73.542 56.776 73.228 57.09 72.841 57.09zM72.841 49.127c-.387 0-.7-.313-.7-.7v-3.981c0-.387.313-.7.7-.7s.7.313.7.7v3.981C73.542 48.813 73.228 49.127 72.841 49.127zM72.841 41.163c-.387 0-.7-.313-.7-.7v-3.981c0-.387.313-.7.7-.7s.7.313.7.7v3.981C73.542 40.85 73.228 41.163 72.841 41.163z"/></g><g><path fill="#d6d3c5" d="M48.56,71.3c-1.026,0-1.86-0.836-1.86-1.863V52.4c0-0.938,0.745-1.7,1.662-1.7h8.547l0.783-2.875 c0.217-0.659,0.851-1.125,1.566-1.125h4.936c0.715,0,1.349,0.466,1.576,1.16l0.773,2.84h8.897c1.026,0,1.86,0.836,1.86,1.863 v16.873c0,1.027-0.834,1.863-1.86,1.863H48.56z"/><path fill="#472b29" d="M64.194,47.4c0.403,0,0.761,0.26,0.901,0.651l0.631,2.317l0.281,1.032h1.07h8.363 c0.64,0,1.16,0.522,1.16,1.163v16.874c0,0.641-0.52,1.163-1.16,1.163H48.56c-0.64,0-1.16-0.522-1.16-1.163V52.4 c0-0.552,0.432-1,0.962-1h8.012h1.07l0.281-1.032l0.631-2.317c0.14-0.391,0.499-0.651,0.901-0.651H64.194 M64.194,46h-4.936 c-1.017,0-1.919,0.661-2.241,1.641L56.374,50h-8.012C47.058,50,46,51.075,46,52.4v17.037C46,70.853,47.146,72,48.56,72h26.88 c1.414,0,2.56-1.147,2.56-2.563V52.563C78,51.147,76.854,50,75.44,50h-8.363l-0.643-2.359C66.113,46.661,65.21,46,64.194,46 L64.194,46z"/><path fill="#be7841" d="M47.375 55.13H76.562V67.571H47.375z"/><path fill="#d6d3c5" d="M49.7 47.7H54.300000000000004V50.300000000000004H49.7z"/><path fill="#472b29" d="M53.6 48.4v1.2h-3.2v-1.2H53.6M55 47h-6v4h6V47L55 47zM70.063 56H46.5c-.276 0-.5-.224-.5-.5s.224-.5.5-.5h23.563c.276 0 .5.224.5.5S70.339 56 70.063 56zM74.5 68h-27c-.276 0-.5-.224-.5-.5s.224-.5.5-.5h27c.276 0 .5.224.5.5S74.776 68 74.5 68zM74.5 56h-2c-.276 0-.5-.224-.5-.5s.224-.5.5-.5h2c.276 0 .5.224.5.5S74.776 56 74.5 56z"/><g><path fill="#bebacb" d="M62 53.7A7.3 7.3 0 1 0 62 68.3A7.3 7.3 0 1 0 62 53.7Z"/><path fill="#472b29" d="M62,54.4c3.639,0,6.6,2.961,6.6,6.6s-2.961,6.6-6.6,6.6s-6.6-2.961-6.6-6.6S58.361,54.4,62,54.4 M62,53c-4.418,0-8,3.582-8,8s3.582,8,8,8s8-3.582,8-8S66.418,53,62,53L62,53z"/></g><g><path fill="#28262d" d="M62 57.7A3.3 3.3 0 1 0 62 64.3A3.3 3.3 0 1 0 62 57.7Z"/><path fill="#472b29" d="M62,58.4c1.434,0,2.6,1.167,2.6,2.6s-1.166,2.6-2.6,2.6s-2.6-1.167-2.6-2.6S60.566,58.4,62,58.4 M62,57c-2.209,0-4,1.791-4,4s1.791,4,4,4s4-1.791,4-4S64.209,57,62,57L62,57z"/></g></g><g><path fill="#472b29" d="M31.041,31.2H24c-0.387,0-0.7-0.313-0.7-0.7s0.313-0.7,0.7-0.7h7.041c0.387,0,0.7,0.313,0.7,0.7 S31.427,31.2,31.041,31.2z"/></g><g><path fill="#472b29" d="M31.041,63.072H24c-0.387,0-0.7-0.313-0.7-0.7s0.313-0.7,0.7-0.7h7.041c0.387,0,0.7,0.313,0.7,0.7 S31.427,63.072,31.041,63.072z"/></g><g><path fill="#472b29" d="M78,31.2h-7.041c-0.387,0-0.7-0.313-0.7-0.7s0.313-0.7,0.7-0.7H78c0.387,0,0.7,0.313,0.7,0.7 S78.387,31.2,78,31.2z"/></g><g><path fill="#472b29" d="M28.561,32.651c-0.387,0-0.7-0.313-0.7-0.7v-7.04c0-0.387,0.313-0.7,0.7-0.7s0.7,0.313,0.7,0.7v7.04 C29.261,32.338,28.948,32.651,28.561,32.651z"/></g><g><path fill="#472b29" d="M72.841,32.651c-0.387,0-0.7-0.313-0.7-0.7v-7.04c0-0.387,0.313-0.7,0.7-0.7s0.7,0.313,0.7,0.7v7.04 C73.542,32.338,73.228,32.651,72.841,32.651z"/></g><g><path fill="#472b29" d="M28.561,68.386c-0.387,0-0.7-0.313-0.7-0.7v-7.04c0-0.387,0.313-0.7,0.7-0.7s0.7,0.313,0.7,0.7v7.04 C29.261,68.072,28.948,68.386,28.561,68.386z"/></g></svg>