<svg xmlns="http://www.w3.org/2000/svg"  viewBox="0 0 40 40" width="80px" height="80px"><path fill="#f5c276" d="M6.364,35.5c-0.476,0-0.864-0.397-0.864-0.885V3.385C5.5,2.897,5.888,2.5,6.364,2.5H16.54 C16.513,2.668,16.5,2.834,16.5,3c0,1.93,1.57,3.5,3.5,3.5s3.5-1.57,3.5-3.5c0-0.166-0.013-0.332-0.04-0.5h10.176 c0.476,0,0.864,0.397,0.864,0.885v31.23c0,0.488-0.388,0.885-0.864,0.885H6.364z"/><path fill="#c29653" d="M33.636,3C33.837,3,34,3.173,34,3.385v31.231C34,34.827,33.837,35,33.636,35H6.364 C6.163,35,6,34.827,6,34.615V3.385C6,3.173,6.163,3,6.364,3H16c0,2.206,1.794,4,4,4s4-1.794,4-4H33.636 M33.636,2h-10.82 C22.928,2.314,23,2.647,23,3c0,1.657-1.343,3-3,3s-3-1.343-3-3c0-0.353,0.072-0.686,0.184-1H6.364C5.611,2,5,2.62,5,3.385v31.231 C5,35.38,5.611,36,6.364,36h27.273C34.389,36,35,35.38,35,34.615V3.385C35,2.62,34.389,2,33.636,2L33.636,2z"/><path fill="#66798f" d="M22.289,2c0.225,0.515,0.289,1.116,0.099,1.747c-0.247,0.819-0.937,1.479-1.769,1.679	C18.97,5.821,17.5,4.582,17.5,3c0-0.356,0.077-0.693,0.211-1H13v4c0,1.105,0.895,2,2,2h10c1.105,0,2-0.895,2-2V2H22.289z"/><path fill="#66798f" d="M20,1c1.103,0,2,0.897,2,2s-0.897,2-2,2s-2-0.897-2-2S18.897,1,20,1 M20,0c-1.657,0-3,1.343-3,3 s1.343,3,3,3s3-1.343,3-3S21.657,0,20,0L20,0z"/><path fill="#f2faff" d="M15.5 15.5H38.5V38.5H15.5z"/><path fill="#788b9c" d="M38,16v22H16V16H38 M39,15H15v24h24V15L39,15z"/><path fill="#f2faff" d="M34 15H35V39H34zM29 15H30V39H29zM24 15H25V39H24zM19 15H20V39H19z"/><path fill="#f2faff" d="M26.5 22.5H27.5V46.5H26.5z" transform="rotate(90 27 34.5)"/><path fill="#f2faff" d="M26.5 17.5H27.5V41.5H26.5z" transform="rotate(90 27 29.5)"/><path fill="#f2faff" d="M26.5 12.5H27.5V36.5H26.5z" transform="rotate(90 27 24.5)"/><path fill="#f2faff" d="M26.5 7.5H27.5V31.5H26.5z" transform="rotate(90 27 19.5)"/></svg>