<svg width="576" height="512" xmlns="http://www.w3.org/2000/svg" xmlns:xlink="http://www.w3.org/1999/xlink" overflow="hidden"><defs><clipPath id="clip0"><rect x="352" y="104" width="576" height="512"/></clipPath></defs><g clip-path="url(#clip0)" transform="translate(-352 -104)"><path d="M864 104 416 104C380.65 104 352 132.65 352 168L352 328C352 363.35 380.65 392 416 392L864 392C899.35 392 928 363.35 928 328L928 168C928 132.65 899.3 104 864 104ZM608 180C608 173.375 613.375 168 620 168L660 168C666.625 168 672 173.375 672 180L672 220C672 226.625 666.625 232 660 232L620 232C613.4 232 608 226.6 608 220L608 180ZM512 180C512 173.375 517.375 168 524 168L564 168C570.625 168 576 173.375 576 180L576 220C576 226.625 570.625 232 564 232L524 232C517.4 232 512 226.6 512 220L512 180ZM480 316C480 322.625 474.625 328 468 328L428 328C421.375 328 416 322.625 416 316L416 276C416 269.375 421.375 264 428 264L468 264C474.625 264 480 269.375 480 276L480 316ZM480 220C480 226.625 474.625 232 468 232L428 232C421.38 232 416 226.6 416 220L416 180C416 173.375 421.375 168 428 168L468 168C474.625 168 480 173.375 480 180L480 220ZM768 316C768 322.625 762.625 328 756 328L524 328C517.375 328 512 322.625 512 316L512 276C512 269.375 517.375 264 524 264L756 264C762.625 264 768 269.375 768 276L768 316ZM768 220C768 226.625 762.625 232 756 232L716 232C709.375 232 704 226.625 704 220L704 180C704 173.375 709.375 168 716 168L756 168C762.625 168 768 173.375 768 180L768 220ZM864 316C864 322.625 858.625 328 852 328L812 328C805.375 328 800 322.625 800 316L800 276C800 269.375 805.375 264 812 264L852 264C858.625 264 864 269.375 864 276L864 316ZM864 220C864 226.625 858.625 232 852 232L812 232C805.375 232 800 226.625 800 220L800 180C800 173.375 805.375 168 812 168L852 168C858.625 168 864 173.375 864 180L864 220ZM744 455.9 536 455.9C526.451 455.9 517.81 461.56 514 470.32 510.186 479.076 511.921 489.29 518.405 496.28L622.405 608.38C631.903 618.62 648.095 618.62 657.595 608.38L761.595 496.28C768.079 489.292 769.814 479.08 766.004 470.32 762.2 461.6 753.5 455.9 744 455.9Z" fill="#D0CECE"/></g></svg>