<svg width="122.88" height="96" xmlns="http://www.w3.org/2000/svg">
 <title>volume-mute</title>

 <g>
  <title>background</title>
  <rect fill="none" id="canvas_background" height="402" width="582" y="-1" x="-1"/>
 </g>
 <g>
  <title>Layer 1</title>
  <path fill="#C97A86" id="svg_1" d="m12.81,22.46l25.53,0l21.12,-21.28a4,4 0 0 1 5.66,0a3.91,3.91 0 0 1 1.19,2.82l0,0l0,88a4,4 0 0 1 -6.9,2.81l-20.87,-17l-25.73,0a12.84,12.84 0 0 1 -12.81,-12.81l0,-29.73a12.84,12.84 0 0 1 12.81,-12.81zm100.62,8.09a5.48,5.48 0 0 1 7.82,0a5.62,5.62 0 0 1 0,7.89l-9.42,9.56l9.45,9.59a5.57,5.57 0 0 1 -0.06,7.85a5.49,5.49 0 0 1 -7.79,0l-9.43,-9.54l-9.4,9.55a5.5,5.5 0 0 1 -7.82,0a5.63,5.63 0 0 1 0,-7.9l9.45,-9.55l-9.45,-9.6a5.56,5.56 0 0 1 0.06,-7.84a5.47,5.47 0 0 1 7.79,0l9.4,9.52l9.4,-9.54l0,0.01z"/>
 </g>
</svg>