<?xml version="1.0" encoding="iso-8859-1"?>
<!-- Generator: Adobe Illustrator 16.0.0, SVG Export Plug-In . SVG Version: 6.00 Build 0)  -->
<!DOCTYPE svg PUBLIC "-//W3C//DTD SVG 1.1//EN" "http://www.w3.org/Graphics/SVG/1.1/DTD/svg11.dtd">
<svg version="1.1" id="Capa_1" xmlns="http://www.w3.org/2000/svg" xmlns:xlink="http://www.w3.org/1999/xlink" x="0px" y="0px"
	 width="48.001px" height="48.001px" viewBox="0 0 48.001 48.001" style="enable-background:new 0 0 48.001 48.001;"
	 xml:space="preserve">
<g>
	<path d="M46.354,18.926h-4.4c-0.396-1.399-0.959-2.745-1.676-4.026l3.115-3.117c0.311-0.307,0.481-0.727,0.481-1.164
		c0-0.436-0.172-0.854-0.481-1.162l-4.848-4.849c-0.645-0.643-1.686-0.643-2.328,0l-3.115,3.117
		c-1.281-0.719-2.627-1.279-4.027-1.675V1.648c0-0.91-0.737-1.646-1.646-1.646h-6.857c-0.909,0-1.646,0.735-1.646,1.646v4.401
		c-1.4,0.396-2.746,0.956-4.028,1.675l-3.116-3.117c-0.643-0.643-1.685-0.643-2.327,0L4.606,9.456c-0.643,0.641-0.643,1.684,0,2.326
		l3.116,3.12c-0.717,1.278-1.28,2.626-1.676,4.025h-4.4C0.735,18.928,0,19.664,0,20.572v6.857c0,0.909,0.735,1.646,1.646,1.646
		h4.401c0.396,1.399,0.958,2.747,1.676,4.024l-3.116,3.118c-0.643,0.644-0.643,1.687,0,2.327l4.848,4.85
		c0.643,0.644,1.682,0.644,2.324,0l3.119-3.117c1.282,0.719,2.628,1.279,4.028,1.675v4.401c0,0.91,0.737,1.646,1.646,1.646h6.858
		c0.907,0,1.646-0.735,1.646-1.646v-4.401c1.397-0.396,2.745-0.956,4.028-1.675l3.114,3.117c0.617,0.616,1.712,0.616,2.328,0
		l4.847-4.85c0.645-0.645,0.645-1.684,0-2.327l-3.115-3.116c0.718-1.278,1.279-2.625,1.677-4.024h4.401
		c0.91,0,1.646-0.737,1.646-1.646v-6.857C48,19.661,47.266,18.926,46.354,18.926z M34.617,24.342
		c-0.436,1.945-2.292,4.102-4.332,5.969v3.271c0,0.841-0.682,1.521-1.521,1.521s-1.521-0.681-1.521-1.521v-0.753
		c-1.812,1.374-3.241,2.272-3.241,2.272s-0.772-0.485-1.903-1.289v2.707c0,0.674-0.545,1.217-1.216,1.217
		c-0.671,0-1.216-0.543-1.216-1.217v-4.545c-0.226-0.181-0.456-0.367-0.684-0.56v2.267c0,0.842-0.682,1.521-1.52,1.521
		c-0.84,0-1.522-0.679-1.522-1.521V28.54c-1.263-1.39-2.253-2.845-2.556-4.2c-0.196-0.6-0.303-1.236-0.303-1.903
		c0-2.326,1.289-4.351,3.188-5.405c0.885-0.485,1.899-0.765,2.979-0.765c1.91,0,3.619,0.869,4.752,2.232
		c1.131-1.363,2.837-2.232,4.749-2.232c1.08,0,2.096,0.28,2.975,0.765c1.906,1.055,3.194,3.079,3.194,5.405
		C34.921,23.104,34.812,23.742,34.617,24.342z"/>
</g>
<g>
</g>
<g>
</g>
<g>
</g>
<g>
</g>
<g>
</g>
<g>
</g>
<g>
</g>
<g>
</g>
<g>
</g>
<g>
</g>
<g>
</g>
<g>
</g>
<g>
</g>
<g>
</g>
<g>
</g>
</svg>
